<svg xmlns="http://www.w3.org/2000/svg" version="1.1" xmlns:xlink="http://www.w3.org/1999/xlink" xmlns:svgjs="http://svgjs.dev/svgjs" width="2019" height="1695"><svg viewBox="0 0 2019 1695" xmlns="http://www.w3.org/2000/svg" xml:space="preserve" style="fill-rule:evenodd;clip-rule:evenodd;stroke-linejoin:round;stroke-miterlimit:2"><g transform="matrix(.46464 0 0 1.00002 .31 -8.71)"><path style="fill:none" d="M0 9.304h4344.18v1693.96H0z"></path><clipPath id="SvgjsClipPath1005"><path d="M0 9.304h4344.18v1693.96H0z"></path></clipPath><g clip-path="url(#a)"><path d="m519.29 395.379-3.634 135.687H323.94c-72.667 0-131.663-58.996-131.663-131.663S251.273 267.74 323.94 267.74c13.728 0 26.968 2.105 39.414 6.011 2.993 69.881 57.907 125.652 125.113 125.652 10.635 0 20.961-1.396 30.823-4.024Z" style="fill:#ffc76f" transform="matrix(7.66504 0 0 3.38763 -1473.816 -451.368)"></path><circle cx="532.843" cy="459.177" r="153.417" style="fill:#ff781b" transform="matrix(6.25734 0 0 2.90729 -1063.876 -879.325)"></circle><path d="m379.426 705.122 1.018 1.166h-1.018v-1.166Zm0 0V457.814h.006c.733-84.047 69.193-152.054 153.411-152.054 84.673 0 153.417 68.744 153.417 153.417s-68.744 153.416-153.417 153.416c-4.752 0-9.453-.216-14.095-.64l-38.728.612s7.478 56.279-57.439 63.881c-40.221 4.709-43.155 28.676-43.155 28.676Z" style="fill:#2cada7" transform="matrix(6.7588 0 0 3.11562 -294.16 -496.995)"></path><path d="m609.196 388.453 6.513 2.484a32.318 32.318 0 0 1-1.001 2.377c-5.244 11.198-16.614 18.967-29.787 18.967-14.086 0-26.11-8.884-30.789-21.344l6.513-2.484c3.688 9.82 13.174 16.809 24.276 16.809 10.385 0 19.355-6.116 23.49-14.944.285-.609.547-1.231.785-1.865Z" style="fill:#fff" transform="matrix(17.1801 0 0 7.91953 -6741.756 -2070.829)"></path></g></g></svg><style>@media (prefers-color-scheme: light) { :root { filter: none; } }
@media (prefers-color-scheme: dark) { :root { filter: none; } }
</style></svg>